{
    "asset" : {
        "generator" : "Khronos glTF Blender I/O v3.3.32",
        "version" : "2.0"
    },
    "scene" : 0,
    "scenes" : [
        {
            "name" : "Scene",
            "nodes" : [
                6
            ]
        }
    ],
    "nodes" : [
        {
            "mesh" : 0,
            "name" : "v"
        },
        {
            "mesh" : 1,
            "name" : "v.001"
        },
        {
            "mesh" : 2,
            "name" : "v.002"
        },
        {
            "children" : [
                0,
                1,
                2
            ],
            "name" : "Bullet"
        },
        {
            "children" : [
                3
            ],
            "name" : "RootNode"
        },
        {
            "children" : [
                4
            ],
            "name" : "Bullet.fbx",
            "rotation" : [
                0.7071068286895752,
                0,
                0,
                0.7071067094802856
            ]
        },
        {
            "children" : [
                5
            ],
            "name" : "Sketchfab_model",
            "rotation" : [
                -0.7071068286895752,
                0,
                0,
                0.7071067094802856
            ]
        }
    ],
    "materials" : [
        {
            "doubleSided" : true,
            "name" : "bullet",
            "normalTexture" : {
                "index" : 0
            },
            "occlusionTexture" : {
                "index" : 1
            },
            "pbrMetallicRoughness" : {
                "baseColorTexture" : {
                    "index" : 2
                },
                "metallicRoughnessTexture" : {
                    "index" : 1
                }
            }
        }
    ],
    "meshes" : [
        {
            "name" : "Bullet_bullet_0",
            "primitives" : [
                {
                    "attributes" : {
                        "POSITION" : 0,
                        "NORMAL" : 1,
                        "TEXCOORD_0" : 2
                    },
                    "indices" : 3,
                    "material" : 0
                }
            ]
        },
        {
            "name" : "Bullet_bullet_0.001",
            "primitives" : [
                {
                    "attributes" : {
                        "POSITION" : 4,
                        "NORMAL" : 5,
                        "TEXCOORD_0" : 6
                    },
                    "indices" : 7,
                    "material" : 0
                }
            ]
        },
        {
            "name" : "Bullet_bullet_0.002",
            "primitives" : [
                {
                    "attributes" : {
                        "POSITION" : 8,
                        "NORMAL" : 9,
                        "TEXCOORD_0" : 10
                    },
                    "indices" : 11,
                    "material" : 0
                }
            ]
        }
    ],
    "textures" : [
        {
            "sampler" : 0,
            "source" : 0
        },
        {
            "sampler" : 0,
            "source" : 1
        },
        {
            "sampler" : 0,
            "source" : 2
        }
    ],
    "images" : [
        {
            "mimeType" : "image/png",
            "name" : "Image_2",
            "uri" : "Image_2.png"
        },
        {
            "mimeType" : "image/png",
            "name" : "Image_1",
            "uri" : "Image_1.png"
        },
        {
            "mimeType" : "image/png",
            "name" : "Image_0",
            "uri" : "Image_0.png"
        }
    ],
    "accessors" : [
        {
            "bufferView" : 0,
            "componentType" : 5126,
            "count" : 1592,
            "max" : [
                1.4576482772827148,
                0.4974486231803894,
                0.49744880199432373
            ],
            "min" : [
                -1.4576480388641357,
                -0.49744895100593567,
                -0.49744847416877747
            ],
            "type" : "VEC3"
        },
        {
            "bufferView" : 1,
            "componentType" : 5126,
            "count" : 1592,
            "type" : "VEC3"
        },
        {
            "bufferView" : 2,
            "componentType" : 5126,
            "count" : 1592,
            "type" : "VEC2"
        },
        {
            "bufferView" : 3,
            "componentType" : 5123,
            "count" : 4800,
            "type" : "SCALAR"
        },
        {
            "bufferView" : 4,
            "componentType" : 5126,
            "count" : 1045,
            "max" : [
                1.4576482772827148,
                0.4974486231803894,
                0.49744880199432373
            ],
            "min" : [
                -1.4576480388641357,
                -0.5021310448646545,
                -0.5033358931541443
            ],
            "type" : "VEC3"
        },
        {
            "bufferView" : 5,
            "componentType" : 5126,
            "count" : 1045,
            "type" : "VEC3"
        },
        {
            "bufferView" : 6,
            "componentType" : 5126,
            "count" : 1045,
            "type" : "VEC2"
        },
        {
            "bufferView" : 7,
            "componentType" : 5123,
            "count" : 2397,
            "type" : "SCALAR"
        },
        {
            "bufferView" : 8,
            "componentType" : 5126,
            "count" : 574,
            "max" : [
                1.4549504518508911,
                0.5223524570465088,
                0.5174181461334229
            ],
            "min" : [
                -1.4590431451797485,
                -0.5174729824066162,
                -0.5088039636611938
            ],
            "type" : "VEC3"
        },
        {
            "bufferView" : 9,
            "componentType" : 5126,
            "count" : 574,
            "type" : "VEC3"
        },
        {
            "bufferView" : 10,
            "componentType" : 5126,
            "count" : 574,
            "type" : "VEC2"
        },
        {
            "bufferView" : 11,
            "componentType" : 5123,
            "count" : 1200,
            "type" : "SCALAR"
        }
    ],
    "bufferViews" : [
        {
            "buffer" : 0,
            "byteLength" : 19104,
            "byteOffset" : 0,
            "target" : 34962
        },
        {
            "buffer" : 0,
            "byteLength" : 19104,
            "byteOffset" : 19104,
            "target" : 34962
        },
        {
            "buffer" : 0,
            "byteLength" : 12736,
            "byteOffset" : 38208,
            "target" : 34962
        },
        {
            "buffer" : 0,
            "byteLength" : 9600,
            "byteOffset" : 50944,
            "target" : 34963
        },
        {
            "buffer" : 0,
            "byteLength" : 12540,
            "byteOffset" : 60544,
            "target" : 34962
        },
        {
            "buffer" : 0,
            "byteLength" : 12540,
            "byteOffset" : 73084,
            "target" : 34962
        },
        {
            "buffer" : 0,
            "byteLength" : 8360,
            "byteOffset" : 85624,
            "target" : 34962
        },
        {
            "buffer" : 0,
            "byteLength" : 4794,
            "byteOffset" : 93984,
            "target" : 34963
        },
        {
            "buffer" : 0,
            "byteLength" : 6888,
            "byteOffset" : 98780,
            "target" : 34962
        },
        {
            "buffer" : 0,
            "byteLength" : 6888,
            "byteOffset" : 105668,
            "target" : 34962
        },
        {
            "buffer" : 0,
            "byteLength" : 4592,
            "byteOffset" : 112556,
            "target" : 34962
        },
        {
            "buffer" : 0,
            "byteLength" : 2400,
            "byteOffset" : 117148,
            "target" : 34963
        }
    ],
    "samplers" : [
        {
            "magFilter" : 9729,
            "minFilter" : 9987
        }
    ],
    "buffers" : [
        {
            "byteLength" : 119548,
            "uri" : "bullet.bin"
        }
    ]
}
